#define cal_width 14
#define cal_height 14
static unsigned char cal_bits[] = {
   0x0c, 0x03, 0x0c, 0x03, 0xff, 0x0f, 0x0d, 0x0b, 0x01, 0x08, 0x6d, 0x0b,
   0x6d, 0x0b, 0x01, 0x08, 0x6d, 0x0b, 0x6d, 0x0b, 0x01, 0x08, 0xff, 0x0f,
   0x00, 0x00, 0x00, 0x00 };
