#define clock_width 14
#define clock_height 14
static unsigned char clock_bits[] = {
   0x00, 0x00, 0xe0, 0x01, 0xf8, 0x07, 0xbc, 0x0f, 0xbc, 0x0f, 0xbe, 0x1f,
      0xbe, 0x1f, 0x3e, 0x1c, 0xfe, 0x1f, 0xfc, 0x0f, 0xfc, 0x0f, 0xf8, 0x07,
         0xe0, 0x01, 0x00, 0x00 };
