#define cpul_width 11
#define cpul_height 11
static char cpul_bits[] = {
  0x77, 0x07, 0x03, 0x04, 0x01, 0x04, 0xF8, 0x00, 0xFB, 0x04, 0xF9, 0x04,
  0xF9, 0x04, 0xF8, 0x00, 0x01, 0x04, 0x01, 0x06, 0x77, 0x07, };




