#define disk_width 14
#define disk_height 14
static unsigned char disk_bits[] = {
   0x00, 0x00, 0xfc, 0x07, 0x8c, 0x1b, 0x8c, 0x1b, 0x8c, 0x1b, 0x0c, 0x18,
      0xfc, 0x1f, 0x0c, 0x18, 0x0c, 0x18, 0x0c, 0x18, 0x0c, 0x18, 0xfc, 0x1f,
         0x00, 0x00, 0x00, 0x00 };
