#define mem_width 14
#define mem_height 14
static unsigned char mem_bits[] = {
   0x00, 0x00, 0xff, 0x03, 0xff, 0x03, 0x00, 0x00, 0x1f, 0x00, 0x1f, 0x00,
      0x00, 0x00, 0xff, 0x0f, 0xff, 0x0f, 0x00, 0x00, 0xff, 0x00, 0xff, 0x00,
         0x00, 0x00, 0x00, 0x00 };
