#define spkr_02_width 14
#define spkr_02_height 14
static unsigned char spkr_02_bits[] = {
   0x00, 0x00, 0x00, 0x03, 0x80, 0x03, 0xc0, 0x03, 0xf8, 0x03, 0xf8, 0x03,
      0xf8, 0x03, 0xf8, 0x03, 0xf8, 0x03, 0xc0, 0x03, 0x80, 0x03, 0x00, 0x03,
         0x00, 0x00, 0x00, 0x00 };
