#define temp_width 14
#define temp_height 14
static unsigned char temp_bits[] = {
   0xc0, 0x00, 0x20, 0x01, 0x20, 0x01, 0x20, 0x01, 0x20, 0x01, 0xe0, 0x01,
      0xe0, 0x01, 0xe0, 0x01, 0xf0, 0x03, 0xf0, 0x03, 0xf0, 0x03, 0xe0, 0x01,
         0x00, 0x00, 0x00, 0x00 };
