#define wifi_02_width 14
#define wifi_02_height 14
static unsigned char wifi_02_bits[] = {
   0x00, 0x00, 0x00, 0x30, 0x00, 0x30, 0x00, 0x30, 0x00, 0x33, 0x00, 0x33,
      0x00, 0x33, 0x30, 0x33, 0x30, 0x33, 0x30, 0x33, 0x33, 0x33, 0x33, 0x33,
         0x00, 0x00, 0x00, 0x00 };
